<?xml version="1.0" encoding="UTF-8"?>
<svg xmlns="http://www.w3.org/2000/svg" xmlns:xlink="http://www.w3.org/1999/xlink" width="123.94pt" height="72.91pt" viewBox="0 0 123.94 72.91">
<defs>
<g>
<g id="glyph-0-0">
<path d="M 2.921875 -6.375 C 2.921875 -6.609375 2.921875 -6.625 2.703125 -6.625 C 2.078125 -5.984375 1.203125 -5.984375 0.890625 -5.984375 L 0.890625 -5.6875 C 1.078125 -5.6875 1.671875 -5.6875 2.1875 -5.9375 L 2.1875 -0.78125 C 2.1875 -0.421875 2.15625 -0.3125 1.265625 -0.3125 L 0.953125 -0.3125 L 0.953125 0 C 1.296875 -0.03125 2.15625 -0.03125 2.5625 -0.03125 C 2.953125 -0.03125 3.828125 -0.03125 4.171875 0 L 4.171875 -0.3125 L 3.859375 -0.3125 C 2.953125 -0.3125 2.921875 -0.421875 2.921875 -0.78125 Z M 2.921875 -6.375 "/>
</g>
<g id="glyph-0-1">
<path d="M 1.265625 -0.765625 L 2.3125 -1.796875 C 3.875 -3.171875 4.46875 -3.703125 4.46875 -4.703125 C 4.46875 -5.828125 3.578125 -6.625 2.359375 -6.625 C 1.234375 -6.625 0.5 -5.71875 0.5 -4.828125 C 0.5 -4.265625 1 -4.265625 1.03125 -4.265625 C 1.1875 -4.265625 1.546875 -4.390625 1.546875 -4.796875 C 1.546875 -5.0625 1.359375 -5.3125 1.015625 -5.3125 C 0.9375 -5.3125 0.921875 -5.3125 0.890625 -5.3125 C 1.109375 -5.953125 1.65625 -6.3125 2.234375 -6.3125 C 3.140625 -6.3125 3.5625 -5.515625 3.5625 -4.703125 C 3.5625 -3.90625 3.0625 -3.109375 2.515625 -2.5 L 0.609375 -0.375 C 0.5 -0.265625 0.5 -0.234375 0.5 0 L 4.1875 0 L 4.46875 -1.734375 L 4.21875 -1.734375 C 4.171875 -1.4375 4.09375 -1 4 -0.84375 C 3.9375 -0.765625 3.28125 -0.765625 3.0625 -0.765625 Z M 1.265625 -0.765625 "/>
</g>
<g id="glyph-0-2">
<path d="M 2.890625 -3.5 C 3.703125 -3.765625 4.28125 -4.46875 4.28125 -5.25 C 4.28125 -6.078125 3.40625 -6.625 2.453125 -6.625 C 1.4375 -6.625 0.6875 -6.03125 0.6875 -5.28125 C 0.6875 -4.953125 0.90625 -4.75 1.1875 -4.75 C 1.5 -4.75 1.703125 -4.96875 1.703125 -5.265625 C 1.703125 -5.765625 1.234375 -5.765625 1.078125 -5.765625 C 1.390625 -6.25 2.046875 -6.375 2.40625 -6.375 C 2.8125 -6.375 3.359375 -6.15625 3.359375 -5.265625 C 3.359375 -5.140625 3.34375 -4.5625 3.078125 -4.125 C 2.78125 -3.65625 2.453125 -3.625 2.203125 -3.609375 C 2.125 -3.609375 1.875 -3.578125 1.8125 -3.578125 C 1.734375 -3.578125 1.65625 -3.5625 1.65625 -3.46875 C 1.65625 -3.359375 1.734375 -3.359375 1.90625 -3.359375 L 2.34375 -3.359375 C 3.15625 -3.359375 3.515625 -2.671875 3.515625 -1.703125 C 3.515625 -0.34375 2.84375 -0.0625 2.40625 -0.0625 C 1.96875 -0.0625 1.21875 -0.234375 0.875 -0.8125 C 1.21875 -0.765625 1.53125 -0.984375 1.53125 -1.359375 C 1.53125 -1.71875 1.265625 -1.921875 0.96875 -1.921875 C 0.734375 -1.921875 0.421875 -1.78125 0.421875 -1.34375 C 0.421875 -0.4375 1.34375 0.21875 2.421875 0.21875 C 3.640625 0.21875 4.546875 -0.6875 4.546875 -1.703125 C 4.546875 -2.515625 3.921875 -3.296875 2.890625 -3.5 Z M 2.890625 -3.5 "/>
</g>
<g id="glyph-0-3">
<path d="M 2.921875 -1.640625 L 2.921875 -0.78125 C 2.921875 -0.421875 2.90625 -0.3125 2.171875 -0.3125 L 1.953125 -0.3125 L 1.953125 0 C 2.375 -0.03125 2.890625 -0.03125 3.296875 -0.03125 C 3.71875 -0.03125 4.25 -0.03125 4.65625 0 L 4.65625 -0.3125 L 4.453125 -0.3125 C 3.71875 -0.3125 3.6875 -0.421875 3.6875 -0.78125 L 3.6875 -1.640625 L 4.6875 -1.640625 L 4.6875 -1.953125 L 3.6875 -1.953125 L 3.6875 -6.484375 C 3.6875 -6.671875 3.6875 -6.734375 3.53125 -6.734375 C 3.4375 -6.734375 3.40625 -6.734375 3.328125 -6.625 L 0.28125 -1.953125 L 0.28125 -1.640625 Z M 2.984375 -1.953125 L 0.5625 -1.953125 L 2.984375 -5.65625 Z M 2.984375 -1.953125 "/>
</g>
<g id="glyph-0-4">
<path d="M 4.46875 -2 C 4.46875 -3.1875 3.65625 -4.1875 2.578125 -4.1875 C 2.09375 -4.1875 1.671875 -4.015625 1.3125 -3.671875 L 1.3125 -5.609375 C 1.515625 -5.546875 1.84375 -5.484375 2.15625 -5.484375 C 3.390625 -5.484375 4.078125 -6.390625 4.078125 -6.515625 C 4.078125 -6.578125 4.046875 -6.625 3.984375 -6.625 C 3.96875 -6.625 3.953125 -6.625 3.90625 -6.59375 C 3.703125 -6.515625 3.21875 -6.3125 2.546875 -6.3125 C 2.15625 -6.3125 1.6875 -6.375 1.21875 -6.59375 C 1.140625 -6.625 1.125 -6.625 1.109375 -6.625 C 1 -6.625 1 -6.546875 1 -6.375 L 1 -3.4375 C 1 -3.25 1 -3.171875 1.140625 -3.171875 C 1.21875 -3.171875 1.234375 -3.203125 1.28125 -3.265625 C 1.390625 -3.421875 1.75 -3.96875 2.5625 -3.96875 C 3.078125 -3.96875 3.328125 -3.5 3.40625 -3.328125 C 3.5625 -2.953125 3.578125 -2.5625 3.578125 -2.0625 C 3.578125 -1.71875 3.578125 -1.125 3.34375 -0.703125 C 3.109375 -0.3125 2.734375 -0.0625 2.28125 -0.0625 C 1.546875 -0.0625 0.984375 -0.59375 0.8125 -1.171875 C 0.84375 -1.171875 0.875 -1.15625 0.984375 -1.15625 C 1.3125 -1.15625 1.484375 -1.40625 1.484375 -1.640625 C 1.484375 -1.875 1.3125 -2.125 0.984375 -2.125 C 0.84375 -2.125 0.5 -2.0625 0.5 -1.609375 C 0.5 -0.75 1.1875 0.21875 2.296875 0.21875 C 3.453125 0.21875 4.46875 -0.734375 4.46875 -2 Z M 4.46875 -2 "/>
</g>
<g id="glyph-1-0">
<path d="M 4.46875 -1.734375 L 4.21875 -1.734375 C 4.171875 -1.4375 4.09375 -1 4 -0.84375 C 3.9375 -0.765625 3.28125 -0.765625 3.0625 -0.765625 L 1.265625 -0.765625 L 2.3125 -1.796875 C 3.875 -3.171875 4.46875 -3.703125 4.46875 -4.703125 C 4.46875 -5.828125 3.578125 -6.625 2.359375 -6.625 C 1.234375 -6.625 0.5 -5.71875 0.5 -4.828125 C 0.5 -4.265625 1 -4.265625 1.03125 -4.265625 C 1.1875 -4.265625 1.546875 -4.390625 1.546875 -4.796875 C 1.546875 -5.0625 1.359375 -5.3125 1.015625 -5.3125 C 0.9375 -5.3125 0.921875 -5.3125 0.890625 -5.3125 C 1.109375 -5.953125 1.65625 -6.3125 2.234375 -6.3125 C 3.140625 -6.3125 3.5625 -5.515625 3.5625 -4.703125 C 3.5625 -3.90625 3.0625 -3.109375 2.515625 -2.5 L 0.609375 -0.375 C 0.5 -0.265625 0.5 -0.234375 0.5 0 L 4.1875 0 Z M 4.46875 -1.734375 "/>
</g>
<g id="glyph-1-1">
<path d="M 4.546875 -1.703125 C 4.546875 -2.515625 3.921875 -3.296875 2.890625 -3.5 C 3.703125 -3.765625 4.28125 -4.46875 4.28125 -5.25 C 4.28125 -6.078125 3.40625 -6.625 2.453125 -6.625 C 1.4375 -6.625 0.6875 -6.03125 0.6875 -5.28125 C 0.6875 -4.953125 0.90625 -4.75 1.1875 -4.75 C 1.5 -4.75 1.703125 -4.96875 1.703125 -5.265625 C 1.703125 -5.765625 1.234375 -5.765625 1.078125 -5.765625 C 1.390625 -6.25 2.046875 -6.375 2.40625 -6.375 C 2.8125 -6.375 3.359375 -6.15625 3.359375 -5.265625 C 3.359375 -5.140625 3.34375 -4.5625 3.078125 -4.125 C 2.78125 -3.65625 2.453125 -3.625 2.203125 -3.609375 C 2.125 -3.609375 1.875 -3.578125 1.8125 -3.578125 C 1.734375 -3.578125 1.65625 -3.5625 1.65625 -3.46875 C 1.65625 -3.359375 1.734375 -3.359375 1.90625 -3.359375 L 2.34375 -3.359375 C 3.15625 -3.359375 3.515625 -2.671875 3.515625 -1.703125 C 3.515625 -0.34375 2.84375 -0.0625 2.40625 -0.0625 C 1.96875 -0.0625 1.21875 -0.234375 0.875 -0.8125 C 1.21875 -0.765625 1.53125 -0.984375 1.53125 -1.359375 C 1.53125 -1.71875 1.265625 -1.921875 0.96875 -1.921875 C 0.734375 -1.921875 0.421875 -1.78125 0.421875 -1.34375 C 0.421875 -0.4375 1.34375 0.21875 2.421875 0.21875 C 3.640625 0.21875 4.546875 -0.6875 4.546875 -1.703125 Z M 4.546875 -1.703125 "/>
</g>
<g id="glyph-1-2">
<path d="M 4.546875 -2.03125 C 4.546875 -3.296875 3.65625 -4.25 2.5625 -4.25 C 1.875 -4.25 1.515625 -3.75 1.3125 -3.265625 L 1.3125 -3.5 C 1.3125 -6.015625 2.546875 -6.375 3.0625 -6.375 C 3.296875 -6.375 3.71875 -6.3125 3.9375 -5.984375 C 3.78125 -5.984375 3.390625 -5.984375 3.390625 -5.53125 C 3.390625 -5.21875 3.625 -5.078125 3.84375 -5.078125 C 4 -5.078125 4.296875 -5.171875 4.296875 -5.546875 C 4.296875 -6.15625 3.859375 -6.625 3.03125 -6.625 C 1.765625 -6.625 0.421875 -5.34375 0.421875 -3.140625 C 0.421875 -0.484375 1.578125 0.21875 2.5 0.21875 C 3.609375 0.21875 4.546875 -0.71875 4.546875 -2.03125 Z M 3.65625 -2.046875 C 3.65625 -1.5625 3.65625 -1.0625 3.484375 -0.703125 C 3.1875 -0.109375 2.734375 -0.0625 2.5 -0.0625 C 1.875 -0.0625 1.578125 -0.65625 1.515625 -0.8125 C 1.328125 -1.28125 1.328125 -2.0625 1.328125 -2.25 C 1.328125 -3.03125 1.65625 -4.015625 2.546875 -4.015625 C 2.703125 -4.015625 3.171875 -4.015625 3.46875 -3.40625 C 3.65625 -3.03125 3.65625 -2.53125 3.65625 -2.046875 Z M 3.65625 -2.046875 "/>
</g>
<g id="glyph-2-0">
<path d="M 6.5625 -2.296875 C 6.734375 -2.296875 6.90625 -2.296875 6.90625 -2.484375 C 6.90625 -2.6875 6.734375 -2.6875 6.5625 -2.6875 L 1.171875 -2.6875 C 1 -2.6875 0.828125 -2.6875 0.828125 -2.484375 C 0.828125 -2.296875 1 -2.296875 1.171875 -2.296875 Z M 6.5625 -2.296875 "/>
</g>
</g>
<clipPath id="clip-0">
<path clip-rule="nonzero" d="M 0.046875 22 L 26 22 L 26 51 L 0.046875 51 Z M 0.046875 22 "/>
</clipPath>
<clipPath id="clip-1">
<path clip-rule="nonzero" d="M 47 47 L 77 47 L 77 72.820312 L 47 72.820312 Z M 47 47 "/>
</clipPath>
<clipPath id="clip-2">
<path clip-rule="nonzero" d="M 98 22 L 123.832031 22 L 123.832031 51 L 98 51 Z M 98 22 "/>
</clipPath>
</defs>
<g clip-path="url(#clip-0)">
<path fill="none" stroke-width="0.3985" stroke-linecap="butt" stroke-linejoin="miter" stroke="rgb(0%, 0%, 0%)" stroke-opacity="1" stroke-miterlimit="10" d="M 8.751755 -0.00157089 C 8.751755 4.832514 4.832861 8.751408 -0.00122373 8.751408 C -4.835309 8.751408 -8.754203 4.832514 -8.754203 -0.00157089 C -8.754203 -4.835656 -4.835309 -8.75455 -0.00122373 -8.75455 C 4.832861 -8.75455 8.751755 -4.835656 8.751755 -0.00157089 Z M 8.751755 -0.00157089 " transform="matrix(0.998767, 0, 0, -0.998767, 10.977785, 36.408587)"/>
</g>
<g fill="rgb(0%, 0%, 0%)" fill-opacity="1">
<use xlink:href="#glyph-0-0" x="8.490165" y="39.61483"/>
</g>
<path fill="none" stroke-width="0.3985" stroke-linecap="butt" stroke-linejoin="miter" stroke="rgb(0%, 0%, 0%)" stroke-opacity="1" stroke-miterlimit="10" d="M 59.775599 25.510351 C 59.775599 30.344436 55.856705 34.26333 51.02262 34.26333 C 46.188535 34.26333 42.269641 30.344436 42.269641 25.510351 C 42.269641 20.676266 46.188535 16.757372 51.02262 16.757372 C 55.856705 16.757372 59.775599 20.676266 59.775599 25.510351 Z M 59.775599 25.510351 " transform="matrix(0.998767, 0, 0, -0.998767, 10.977785, 36.408587)"/>
<g fill="rgb(0%, 0%, 0%)" fill-opacity="1">
<use xlink:href="#glyph-0-1" x="59.451149" y="14.134353"/>
</g>
<g clip-path="url(#clip-1)">
<path fill="none" stroke-width="0.3985" stroke-linecap="butt" stroke-linejoin="miter" stroke="rgb(0%, 0%, 0%)" stroke-opacity="1" stroke-miterlimit="10" d="M 59.775599 -25.513493 C 59.775599 -20.679408 55.856705 -16.760514 51.02262 -16.760514 C 46.188535 -16.760514 42.269641 -20.679408 42.269641 -25.513493 C 42.269641 -30.347578 46.188535 -34.266472 51.02262 -34.266472 C 55.856705 -34.266472 59.775599 -30.347578 59.775599 -25.513493 Z M 59.775599 -25.513493 " transform="matrix(0.998767, 0, 0, -0.998767, 10.977785, 36.408587)"/>
</g>
<g fill="rgb(0%, 0%, 0%)" fill-opacity="1">
<use xlink:href="#glyph-0-2" x="59.451149" y="65.095326"/>
</g>
<g clip-path="url(#clip-2)">
<path fill="none" stroke-width="0.3985" stroke-linecap="butt" stroke-linejoin="miter" stroke="rgb(0%, 0%, 0%)" stroke-opacity="1" stroke-miterlimit="10" d="M 110.799442 -0.00157089 C 110.799442 4.832514 106.880548 8.751408 102.046463 8.751408 C 97.212379 8.751408 93.293485 4.832514 93.293485 -0.00157089 C 93.293485 -4.835656 97.212379 -8.75455 102.046463 -8.75455 C 106.880548 -8.75455 110.799442 -4.835656 110.799442 -0.00157089 Z M 110.799442 -0.00157089 " transform="matrix(0.998767, 0, 0, -0.998767, 10.977785, 36.408587)"/>
</g>
<g fill="rgb(0%, 0%, 0%)" fill-opacity="1">
<use xlink:href="#glyph-0-3" x="110.412153" y="39.61483"/>
</g>
<path fill="none" stroke-width="0.79701" stroke-linecap="butt" stroke-linejoin="miter" stroke="rgb(0%, 0%, 0%)" stroke-opacity="1" stroke-miterlimit="10" d="M 8.008651 4.003367 L 43.016656 21.509324 " transform="matrix(0.998767, 0, 0, -0.998767, 10.977785, 36.408587)"/>
<g fill="rgb(0%, 0%, 0%)" fill-opacity="1">
<use xlink:href="#glyph-1-0" x="33.970562" y="16.239923"/>
</g>
<path fill="none" stroke-width="0.79701" stroke-linecap="butt" stroke-linejoin="miter" stroke="rgb(0%, 0%, 0%)" stroke-opacity="1" stroke-miterlimit="10" d="M 59.028584 21.509324 L 94.040499 4.003367 " transform="matrix(0.998767, 0, 0, -0.998767, 10.977785, 36.408587)"/>
<g fill="rgb(0%, 0%, 0%)" fill-opacity="1">
<use xlink:href="#glyph-1-1" x="84.931057" y="16.020634"/>
</g>
<path fill="none" stroke-width="0.79701" stroke-linecap="butt" stroke-linejoin="miter" stroke="rgb(0%, 0%, 0%)" stroke-opacity="1" stroke-miterlimit="10" d="M 8.008651 -4.002597 L 43.016656 -21.508555 " transform="matrix(0.998767, 0, 0, -0.998767, 10.977785, 36.408587)"/>
<g fill="rgb(0%, 0%, 0%)" fill-opacity="1">
<use xlink:href="#glyph-1-2" x="33.970562" y="63.204281"/>
</g>
<path fill="none" stroke-width="0.79701" stroke-linecap="butt" stroke-linejoin="miter" stroke="rgb(0%, 0%, 0%)" stroke-opacity="1" stroke-miterlimit="10" d="M 59.028584 -21.508555 L 94.040499 -4.002597 " transform="matrix(0.998767, 0, 0, -0.998767, 10.977785, 36.408587)"/>
<g fill="rgb(0%, 0%, 0%)" fill-opacity="1">
<use xlink:href="#glyph-2-0" x="81.061414" y="62.990185"/>
</g>
<g fill="rgb(0%, 0%, 0%)" fill-opacity="1">
<use xlink:href="#glyph-0-4" x="88.8006" y="62.990185"/>
</g>
</svg>
