<?xml version="1.0" encoding="UTF-8"?>
<svg xmlns="http://www.w3.org/2000/svg" xmlns:xlink="http://www.w3.org/1999/xlink" width="149.45pt" height="72.91pt" viewBox="0 0 149.45 72.91">
<defs>
<g>
<g id="glyph-0-0">
<path d="M 2.921875 -6.34375 C 2.921875 -6.59375 2.921875 -6.609375 2.6875 -6.609375 C 2.078125 -5.96875 1.203125 -5.96875 0.890625 -5.96875 L 0.890625 -5.671875 C 1.078125 -5.671875 1.671875 -5.671875 2.1875 -5.921875 L 2.1875 -0.78125 C 2.1875 -0.421875 2.15625 -0.3125 1.265625 -0.3125 L 0.9375 -0.3125 L 0.9375 0 C 1.296875 -0.03125 2.15625 -0.03125 2.546875 -0.03125 C 2.953125 -0.03125 3.8125 -0.03125 4.15625 0 L 4.15625 -0.3125 L 3.84375 -0.3125 C 2.953125 -0.3125 2.921875 -0.421875 2.921875 -0.78125 Z M 2.921875 -6.34375 "/>
</g>
<g id="glyph-0-1">
<path d="M 1.265625 -0.765625 L 2.3125 -1.78125 C 3.859375 -3.15625 4.453125 -3.6875 4.453125 -4.6875 C 4.453125 -5.8125 3.5625 -6.609375 2.34375 -6.609375 C 1.234375 -6.609375 0.5 -5.6875 0.5 -4.8125 C 0.5 -4.25 0.984375 -4.25 1.015625 -4.25 C 1.1875 -4.25 1.53125 -4.375 1.53125 -4.78125 C 1.53125 -5.046875 1.359375 -5.296875 1.015625 -5.296875 C 0.9375 -5.296875 0.90625 -5.296875 0.890625 -5.28125 C 1.109375 -5.9375 1.640625 -6.296875 2.21875 -6.296875 C 3.125 -6.296875 3.546875 -5.5 3.546875 -4.6875 C 3.546875 -3.890625 3.0625 -3.109375 2.515625 -2.484375 L 0.609375 -0.359375 C 0.5 -0.265625 0.5 -0.234375 0.5 0 L 4.171875 0 L 4.453125 -1.71875 L 4.203125 -1.71875 C 4.15625 -1.421875 4.09375 -0.984375 3.984375 -0.84375 C 3.921875 -0.765625 3.265625 -0.765625 3.046875 -0.765625 Z M 1.265625 -0.765625 "/>
</g>
<g id="glyph-0-2">
<path d="M 2.875 -3.5 C 3.6875 -3.765625 4.265625 -4.453125 4.265625 -5.234375 C 4.265625 -6.046875 3.390625 -6.609375 2.4375 -6.609375 C 1.4375 -6.609375 0.6875 -6.015625 0.6875 -5.265625 C 0.6875 -4.9375 0.90625 -4.75 1.1875 -4.75 C 1.5 -4.75 1.703125 -4.953125 1.703125 -5.25 C 1.703125 -5.75 1.234375 -5.75 1.078125 -5.75 C 1.390625 -6.234375 2.046875 -6.359375 2.40625 -6.359375 C 2.8125 -6.359375 3.359375 -6.140625 3.359375 -5.25 C 3.359375 -5.125 3.328125 -4.546875 3.078125 -4.125 C 2.78125 -3.640625 2.4375 -3.609375 2.1875 -3.609375 C 2.109375 -3.59375 1.875 -3.578125 1.8125 -3.578125 C 1.71875 -3.5625 1.65625 -3.546875 1.65625 -3.453125 C 1.65625 -3.34375 1.71875 -3.34375 1.890625 -3.34375 L 2.328125 -3.34375 C 3.140625 -3.34375 3.515625 -2.671875 3.515625 -1.703125 C 3.515625 -0.34375 2.828125 -0.0625 2.390625 -0.0625 C 1.96875 -0.0625 1.21875 -0.234375 0.875 -0.8125 C 1.21875 -0.765625 1.53125 -0.984375 1.53125 -1.359375 C 1.53125 -1.71875 1.265625 -1.921875 0.96875 -1.921875 C 0.734375 -1.921875 0.421875 -1.78125 0.421875 -1.34375 C 0.421875 -0.4375 1.34375 0.21875 2.421875 0.21875 C 3.625 0.21875 4.53125 -0.6875 4.53125 -1.703125 C 4.53125 -2.515625 3.90625 -3.28125 2.875 -3.5 Z M 2.875 -3.5 "/>
</g>
<g id="glyph-0-3">
<path d="M 2.921875 -1.640625 L 2.921875 -0.78125 C 2.921875 -0.421875 2.890625 -0.3125 2.15625 -0.3125 L 1.953125 -0.3125 L 1.953125 0 C 2.359375 -0.03125 2.875 -0.03125 3.296875 -0.03125 C 3.703125 -0.03125 4.234375 -0.03125 4.640625 0 L 4.640625 -0.3125 L 4.4375 -0.3125 C 3.703125 -0.3125 3.6875 -0.421875 3.6875 -0.78125 L 3.6875 -1.640625 L 4.671875 -1.640625 L 4.671875 -1.9375 L 3.6875 -1.9375 L 3.6875 -6.453125 C 3.6875 -6.65625 3.6875 -6.71875 3.515625 -6.71875 C 3.4375 -6.71875 3.40625 -6.71875 3.328125 -6.59375 L 0.28125 -1.9375 L 0.28125 -1.640625 Z M 2.96875 -1.9375 L 0.5625 -1.9375 L 2.96875 -5.640625 Z M 2.96875 -1.9375 "/>
</g>
<g id="glyph-0-4">
<path d="M 4.453125 -2 C 4.453125 -3.171875 3.640625 -4.171875 2.5625 -4.171875 C 2.09375 -4.171875 1.671875 -4.015625 1.3125 -3.65625 L 1.3125 -5.59375 C 1.515625 -5.53125 1.828125 -5.46875 2.15625 -5.46875 C 3.375 -5.46875 4.0625 -6.375 4.0625 -6.5 C 4.0625 -6.5625 4.03125 -6.609375 3.96875 -6.609375 C 3.953125 -6.609375 3.9375 -6.609375 3.890625 -6.578125 C 3.6875 -6.484375 3.203125 -6.296875 2.546875 -6.296875 C 2.140625 -6.296875 1.6875 -6.359375 1.21875 -6.5625 C 1.140625 -6.59375 1.125 -6.59375 1.09375 -6.59375 C 1 -6.59375 1 -6.515625 1 -6.359375 L 1 -3.421875 C 1 -3.25 1 -3.171875 1.140625 -3.171875 C 1.203125 -3.171875 1.234375 -3.1875 1.265625 -3.25 C 1.375 -3.40625 1.75 -3.953125 2.546875 -3.953125 C 3.0625 -3.953125 3.3125 -3.5 3.390625 -3.3125 C 3.546875 -2.953125 3.578125 -2.5625 3.578125 -2.0625 C 3.578125 -1.71875 3.578125 -1.125 3.328125 -0.703125 C 3.09375 -0.3125 2.734375 -0.0625 2.265625 -0.0625 C 1.546875 -0.0625 0.984375 -0.578125 0.8125 -1.171875 C 0.84375 -1.15625 0.875 -1.15625 0.984375 -1.15625 C 1.3125 -1.15625 1.484375 -1.40625 1.484375 -1.640625 C 1.484375 -1.875 1.3125 -2.125 0.984375 -2.125 C 0.84375 -2.125 0.5 -2.046875 0.5 -1.59375 C 0.5 -0.75 1.1875 0.21875 2.296875 0.21875 C 3.4375 0.21875 4.453125 -0.734375 4.453125 -2 Z M 4.453125 -2 "/>
</g>
<g id="glyph-0-5">
<path d="M 1.3125 -3.25 L 1.3125 -3.5 C 1.3125 -6 2.546875 -6.359375 3.046875 -6.359375 C 3.28125 -6.359375 3.703125 -6.296875 3.921875 -5.96875 C 3.765625 -5.96875 3.375 -5.96875 3.375 -5.515625 C 3.375 -5.203125 3.609375 -5.0625 3.828125 -5.0625 C 3.984375 -5.0625 4.28125 -5.15625 4.28125 -5.53125 C 4.28125 -6.125 3.84375 -6.609375 3.03125 -6.609375 C 1.75 -6.609375 0.421875 -5.328125 0.421875 -3.140625 C 0.421875 -0.484375 1.5625 0.21875 2.484375 0.21875 C 3.59375 0.21875 4.53125 -0.71875 4.53125 -2.03125 C 4.53125 -3.28125 3.65625 -4.234375 2.546875 -4.234375 C 1.875 -4.234375 1.515625 -3.734375 1.3125 -3.25 Z M 2.484375 -0.0625 C 1.859375 -0.0625 1.5625 -0.65625 1.515625 -0.796875 C 1.328125 -1.265625 1.328125 -2.0625 1.328125 -2.25 C 1.328125 -3.015625 1.640625 -4.015625 2.546875 -4.015625 C 2.703125 -4.015625 3.15625 -4.015625 3.46875 -3.390625 C 3.640625 -3.03125 3.640625 -2.515625 3.640625 -2.03125 C 3.640625 -1.5625 3.640625 -1.0625 3.46875 -0.703125 C 3.171875 -0.109375 2.71875 -0.0625 2.484375 -0.0625 Z M 2.484375 -0.0625 "/>
</g>
</g>
<clipPath id="clip-0">
<path clip-rule="nonzero" d="M 34 0.0898438 L 64 0.0898438 L 64 26 L 34 26 Z M 34 0.0898438 "/>
</clipPath>
<clipPath id="clip-1">
<path clip-rule="nonzero" d="M 85 0.0898438 L 115 0.0898438 L 115 26 L 85 26 Z M 85 0.0898438 "/>
</clipPath>
<clipPath id="clip-2">
<path clip-rule="nonzero" d="M 123 22 L 148.902344 22 L 148.902344 51 L 123 51 Z M 123 22 "/>
</clipPath>
<clipPath id="clip-3">
<path clip-rule="nonzero" d="M 34 47 L 64 47 L 64 72.730469 L 34 72.730469 Z M 34 47 "/>
</clipPath>
<clipPath id="clip-4">
<path clip-rule="nonzero" d="M 85 47 L 115 47 L 115 72.730469 L 85 72.730469 Z M 85 47 "/>
</clipPath>
</defs>
<path fill="none" stroke-width="0.3985" stroke-linecap="butt" stroke-linejoin="miter" stroke="rgb(0%, 0%, 0%)" stroke-opacity="1" stroke-miterlimit="10" d="M 47.019813 51.025699 C 47.019813 55.859831 43.103108 59.776536 38.268977 59.776536 C 33.434845 59.776536 29.51422 55.859831 29.51422 51.025699 C 29.51422 46.187647 33.434845 42.270942 38.268977 42.270942 C 43.103108 42.270942 47.019813 46.187647 47.019813 51.025699 Z M 47.019813 51.025699 " transform="matrix(0.996333, 0, 0, -0.996333, -27.222407, 87.244855)"/>
<g fill="rgb(0%, 0%, 0%)" fill-opacity="1">
<use xlink:href="#glyph-0-0" x="8.42363" y="39.606502"/>
</g>
<g clip-path="url(#clip-0)">
<path fill="none" stroke-width="0.3985" stroke-linecap="butt" stroke-linejoin="miter" stroke="rgb(0%, 0%, 0%)" stroke-opacity="1" stroke-miterlimit="10" d="M 85.28904 76.53721 C 85.28904 81.371342 81.368414 85.288047 76.534283 85.288047 C 71.700151 85.288047 67.783446 81.371342 67.783446 76.53721 C 67.783446 71.703079 71.700151 67.782453 76.534283 67.782453 C 81.368414 67.782453 85.28904 71.703079 85.28904 76.53721 Z M 85.28904 76.53721 " transform="matrix(0.996333, 0, 0, -0.996333, -27.222407, 87.244855)"/>
</g>
<g fill="rgb(0%, 0%, 0%)" fill-opacity="1">
<use xlink:href="#glyph-0-1" x="46.551264" y="14.188076"/>
</g>
<g clip-path="url(#clip-1)">
<path fill="none" stroke-width="0.3985" stroke-linecap="butt" stroke-linejoin="miter" stroke="rgb(0%, 0%, 0%)" stroke-opacity="1" stroke-miterlimit="10" d="M 136.312062 76.53721 C 136.312062 81.371342 132.395357 85.288047 127.561225 85.288047 C 122.727094 85.288047 118.806468 81.371342 118.806468 76.53721 C 118.806468 71.703079 122.727094 67.782453 127.561225 67.782453 C 132.395357 67.782453 136.312062 71.703079 136.312062 76.53721 Z M 136.312062 76.53721 " transform="matrix(0.996333, 0, 0, -0.996333, -27.222407, 87.244855)"/>
</g>
<g fill="rgb(0%, 0%, 0%)" fill-opacity="1">
<use xlink:href="#glyph-0-2" x="97.388086" y="14.188076"/>
</g>
<g clip-path="url(#clip-2)">
<path fill="none" stroke-width="0.3985" stroke-linecap="butt" stroke-linejoin="miter" stroke="rgb(0%, 0%, 0%)" stroke-opacity="1" stroke-miterlimit="10" d="M 174.581289 51.025699 C 174.581289 55.859831 170.660663 59.776536 165.826532 59.776536 C 160.9924 59.776536 157.075695 55.859831 157.075695 51.025699 C 157.075695 46.187647 160.9924 42.270942 165.826532 42.270942 C 170.660663 42.270942 174.581289 46.187647 174.581289 51.025699 Z M 174.581289 51.025699 " transform="matrix(0.996333, 0, 0, -0.996333, -27.222407, 87.244855)"/>
</g>
<g fill="rgb(0%, 0%, 0%)" fill-opacity="1">
<use xlink:href="#glyph-0-3" x="135.515681" y="39.606502"/>
</g>
<g clip-path="url(#clip-3)">
<path fill="none" stroke-width="0.3985" stroke-linecap="butt" stroke-linejoin="miter" stroke="rgb(0%, 0%, 0%)" stroke-opacity="1" stroke-miterlimit="10" d="M 85.28904 25.510268 C 85.28904 30.344399 81.368414 34.265025 76.534283 34.265025 C 71.700151 34.265025 67.783446 30.344399 67.783446 25.510268 C 67.783446 20.676136 71.700151 16.759431 76.534283 16.759431 C 81.368414 16.759431 85.28904 20.676136 85.28904 25.510268 Z M 85.28904 25.510268 " transform="matrix(0.996333, 0, 0, -0.996333, -27.222407, 87.244855)"/>
</g>
<g fill="rgb(0%, 0%, 0%)" fill-opacity="1">
<use xlink:href="#glyph-0-4" x="46.551264" y="65.024898"/>
</g>
<g clip-path="url(#clip-4)">
<path fill="none" stroke-width="0.3985" stroke-linecap="butt" stroke-linejoin="miter" stroke="rgb(0%, 0%, 0%)" stroke-opacity="1" stroke-miterlimit="10" d="M 136.312062 25.510268 C 136.312062 30.344399 132.395357 34.265025 127.561225 34.265025 C 122.727094 34.265025 118.806468 30.344399 118.806468 25.510268 C 118.806468 20.676136 122.727094 16.759431 127.561225 16.759431 C 132.395357 16.759431 136.312062 20.676136 136.312062 25.510268 Z M 136.312062 25.510268 " transform="matrix(0.996333, 0, 0, -0.996333, -27.222407, 87.244855)"/>
</g>
<g fill="rgb(0%, 0%, 0%)" fill-opacity="1">
<use xlink:href="#glyph-0-5" x="97.388086" y="65.024898"/>
</g>
</svg>
